<svg xmlns="http://www.w3.org/2000/svg" width="0.86in" height="0.86in" viewBox="0 0 62.12 62.12">
  <defs>
    <style>
      .a {
        fill: #f27707;
      }
    </style>
  </defs>
  <title>bd_3_rgb_lbg_2_25</title>
  <g>
    <path class="a" d="M17.85,29.43.3,35.41a31.27,31.27,0,0,1,2.43-17.1L17.92,29a.23.23,0,0,1,.13.19c0,.12-.09.17-.2.21M30.94,0A30.92,30.92,0,0,0,14.33,4.88l12.75,13.5c.09.09.15.14.23.14s.16-.05.19-.2ZM21.17,22.4a.37.37,0,0,0,0-.15c0-.09-7-17.24-7-17.24A31.16,31.16,0,0,0,2.83,18.1l18,4.45.16,0A.17.17,0,0,0,21.17,22.4Zm23.09,7,17.55,6a31,31,0,0,0-2.42-17.1L44.2,29c-.09.06-.14.12-.14.19S44.16,29.39,44.26,29.43ZM34.62,18.32c0,.15.11.2.19.2s.14-.05.22-.14L47.78,4.88A30.9,30.9,0,0,0,31.17,0Zm6.5,4.25.16,0,18-4.45A31.16,31.16,0,0,0,48,5L41,22.25a.56.56,0,0,0,0,.15A.17.17,0,0,0,41.12,22.57Z"/>
    <path class="a" d="M31.06,62.12A31.08,31.08,0,0,0,61.77,35.73L50.19,37.35a.31.31,0,0,0-.29.24A19.89,19.89,0,0,1,34.65,50.67a8.2,8.2,0,1,0-7.18,0A19.87,19.87,0,0,1,12.22,37.59a.32.32,0,0,0-.29-.24L.35,35.73A31.06,31.06,0,0,0,31.06,62.12"/>
  </g>
</svg>
