<svg xmlns="http://www.w3.org/2000/svg" width="3.53in" height="1.92in" viewBox="0 0 254.16 138.24">
  <defs>
    <style>
      .a {
        fill: #fff;
      }

      .b {
        fill: #004593;
      }

      .c {
        fill: #f27707;
      }
    </style>
  </defs>
  <title>bd_3_rgb_lbg_2_25</title>
  <g>
    <path class="a" d="M108.2,69.12A31.06,31.06,0,1,1,77.14,38.06,31.07,31.07,0,0,1,108.2,69.12"/>
    <path class="b" d="M147.1,92.33H130a3.66,3.66,0,0,1-3.67-3.74V49.81A3.61,3.61,0,0,1,130,46.13h16c8.81,0,14.08,5.13,14.08,11.79s-4.11,9.13-5.55,9.65c2.23.56,8.26,3.11,8.26,11.53,0,7.22-5.82,13.23-15.68,13.23m-1.43-39.4h-12V64.58h12c4.75,0,7-2.63,7-5.83S150.56,52.93,145.67,52.93Zm1.7,18.38H133.71V85.47h13.66c5.47,0,8-3.54,8-7.08S152.88,71.31,147.37,71.31Zm36.77,21H172.77A3.67,3.67,0,0,1,169,88.59V49.81a3.67,3.67,0,0,1,3.75-3.68h11.37c15.42,0,23.94,10.34,23.94,23.1S199.47,92.33,184.14,92.33Zm-.48-39.4h-7.15v32.6h7.15c10.91,0,17-6.45,17-16.3S194.68,52.93,183.66,52.93Z"/>
    <path class="c" d="M63.93,67.49l-17.55,6a31.41,31.41,0,0,1-.3-4.36,30.86,30.86,0,0,1,2.73-12.75L64,67.09c.09.07.13.13.13.19s-.09.18-.2.21M77,38.06a30.92,30.92,0,0,0-16.61,4.88l12.75,13.5c.09.09.15.14.23.14s.16,0,.19-.19Zm-9.77,22.4a.41.41,0,0,0,0-.15c0-.09-7-17.24-7-17.24A31.16,31.16,0,0,0,48.91,56.16l18,4.45a.41.41,0,0,0,.16,0A.17.17,0,0,0,67.25,60.46Zm23.09,7,17.55,6a31.4,31.4,0,0,0,.31-4.36,31,31,0,0,0-2.73-12.75L90.28,67.09c-.09.07-.14.13-.14.19S90.24,67.46,90.34,67.49ZM80.7,56.39c0,.14.11.19.19.19s.14,0,.22-.14l12.75-13.5a30.9,30.9,0,0,0-16.61-4.88Zm6.5,4.24a.47.47,0,0,0,.16,0l18-4.45A31.16,31.16,0,0,0,94.06,43.07l-7,17.24a.64.64,0,0,0,0,.15A.17.17,0,0,0,87.2,60.63Z"/>
    <path class="c" d="M77.14,100.18a31.08,31.08,0,0,0,30.71-26.39L96.27,75.41a.31.31,0,0,0-.29.24A19.89,19.89,0,0,1,80.73,88.73a8.2,8.2,0,1,0-7.18,0A19.87,19.87,0,0,1,58.3,75.65a.32.32,0,0,0-.29-.24L46.43,73.79a31.06,31.06,0,0,0,30.71,26.39"/>
  </g>
</svg>
